HIERARCHY
ROOT Hips
{
	OFFSET 0.00000 0.00000 0.00000
	CHANNELS 6 Xposition Yposition Zposition Zrotation Yrotation Xrotation 
	JOINT LHipJoint
	{
		OFFSET 0 0 0
		CHANNELS 3 Zrotation Yrotation Xrotation
		JOINT LeftHip
		{
			OFFSET 1.37959 -1.78713 0.86582
			CHANNELS 3 Zrotation Yrotation Xrotation
			JOINT LeftKnee
			{
				OFFSET 2.54611 -6.99539 0.00000
				CHANNELS 3 Zrotation Yrotation Xrotation
				JOINT LeftAnkle
				{
					OFFSET 2.59951 -7.14211 0.00000
					CHANNELS 3 Zrotation Yrotation Xrotation
					JOINT LeftToe
					{
						OFFSET 0.18493 -0.50810 1.96120
						CHANNELS 3 Zrotation Yrotation Xrotation
						End Site
						{
							OFFSET 0.00000 -0.00000 1.02054
						}
					}
				}
			}
		}
	}
	JOINT RHipJoint
	{
		OFFSET 0 0 0
		CHANNELS 3 Zrotation Yrotation Xrotation
		JOINT RightHip
		{
			OFFSET -1.33564 -1.78713 0.86582
			CHANNELS 3 Zrotation Yrotation Xrotation
			JOINT RightKnee
			{
				OFFSET -2.52705 -6.94302 0.00000
				CHANNELS 3 Zrotation Yrotation Xrotation
				JOINT RightAnkle
				{
					OFFSET -2.55964 -7.03257 0.00000
					CHANNELS 3 Zrotation Yrotation Xrotation
					JOINT RightToe
					{
						OFFSET -0.25804 -0.70896 2.12109
						CHANNELS 3 Zrotation Yrotation Xrotation
						End Site
						{
							OFFSET -0.00000 -0.00000 1.11821
						}
					}
				}
			}
		}
	}
	JOINT lowerback
	{
		OFFSET 0 0 0
		CHANNELS 3 Zrotation Yrotation Xrotation
		JOINT Chest
		{
			OFFSET -0.02031 2.24248 -0.18900
			CHANNELS 3 Zrotation Yrotation Xrotation
			JOINT Chest2
			{
				OFFSET 0.08342 2.24689 -0.03799
				CHANNELS 3 Zrotation Yrotation Xrotation
				JOINT lowerneck
				{
					OFFSET 0 0 0
					CHANNELS 3 Zrotation Yrotation Xrotation
					JOINT Neck
					{
						OFFSET -0.11607 1.55844 0.24628
						CHANNELS 3 Zrotation Yrotation Xrotation
						JOINT Head
						{
							OFFSET 0.06877 1.60174 -0.17013
							CHANNELS 3 Zrotation Yrotation Xrotation
							End Site
							{
								OFFSET 0.03358 1.61266 -0.08543
							}
						}
					}
				}
				JOINT LeftCollar
				{
					OFFSET 0 0 0
					CHANNELS 3 Zrotation Yrotation Xrotation
					JOINT LeftShoulder
					{
						OFFSET 3.47537 0.55866 -0.72348
CHANNELS 3 Zrotation Xrotation Yrotation
						JOINT LeftElbow
						{
OFFSET 0 -5.381540 0.000000
CHANNELS 3 Zrotation Xrotation Yrotation
							JOINT LeftWrist
							{
OFFSET 0 -3.333120 0.000000
CHANNELS 3 Zrotation Xrotation Yrotation
								JOINT lhand
								{
									OFFSET 0 0 0
CHANNELS 3 Zrotation Xrotation Yrotation
									JOINT LFingers
									{
OFFSET 0 -0.710790 0.000000
CHANNELS 3 Zrotation Xrotation Yrotation
										End Site
										{
OFFSET 0 -0.573060 0.000000
										}
									}
								}
								JOINT LThumb
								{
OFFSET 0 0.000000 0.000000
CHANNELS 3 Zrotation Xrotation Yrotation
									End Site
									{
OFFSET 0 -0.581810 0.581810
									}
								}
							}
						}
					}
				}
				JOINT RightCollar
				{
					OFFSET 0 0 0
					CHANNELS 3 Zrotation Yrotation Xrotation
					JOINT RightShoulder
					{
						OFFSET -3.27844 0.90739 -0.35708
CHANNELS 3 Zrotation Xrotation Yrotation
						JOINT RightElbow
						{
OFFSET 0 -5.169540 0.000000
CHANNELS 3 Zrotation Xrotation Yrotation
							JOINT RightWrist
							{
OFFSET 0 -3.382870 0.000000
CHANNELS 3 Zrotation Xrotation Yrotation
								JOINT rhand
								{
									OFFSET 0 0 0
CHANNELS 3 Zrotation Xrotation Yrotation
									JOINT RFingers
									{
OFFSET 0 -0.817970 0.000000
CHANNELS 3 Zrotation Xrotation Yrotation
										End Site
										{
OFFSET 0 -0.659470 0.000000
										}
									}
								}
								JOINT RThumb
								{
OFFSET 0 0.000000 0.000000
CHANNELS 3 Zrotation Xrotation Yrotation
									End Site
									{
OFFSET 0 -0.669530 0.669530
									}
								}
							}
						}
					}
				}
			}
		}
	}
}
MOTION
Frames: 10
Frame Time: 0.008333333333333333
5.642285 17.656588 -4.128605 -541.967745 171.931467 -175.915007 0.000000 0.000000 0.000000 -5.449259 -9.353739 -28.838741 4.669210 12.996482 39.363401 0.477913 -5.499784 -12.338717 0.440695 -4.254548 -11.794676 0.000000 0.000000 0.000000 25.063787 -1.436938 -13.356707 -2.436368 -9.720880 28.077920 -1.025678 -2.766942 -20.315950 -0.011413 -0.671870 1.846385 0.827821 0.649322 7.073903 3.047760 1.000931 1.985991 2.591763 0.498516 -1.955794 -11.017445 -5.874940 -23.416462 7.443017 -6.024214 17.306814 3.496146 -2.671811 9.916301 0.000000 0.000000 0.000000 39.069051 -58.709157 -26.424893 25.759211 -36.969941 8.742467 10.638409 24.793795 -30.341760 0.000000 0.000000 0.000000 -7.125000 0.000000 0.000000 -23.491412 59.183298 8.429136 0.000000 0.000000 0.000000 -46.634556 -62.614786 17.243961 -18.612989 -28.934963 -4.842171 -25.091242 -11.754210 -28.095996 0.000000 0.000000 0.000000 7.125000 0.000000 0.000000 3.137865 -0.498601 3.169792
5.653518 17.672078 -3.801469 -541.671578 172.695025 -175.842319 0.000000 0.000000 0.000000 -5.453345 -11.469823 -28.966247 3.504438 11.469082 33.879704 0.498359 -5.595658 -12.599474 0.630087 -5.071706 -14.114808 0.000000 0.000000 0.000000 24.829856 -2.437398 -11.832095 -2.243213 -9.355139 26.912835 -1.119889 -1.755972 -20.697050 -0.058469 -1.560059 4.291226 0.480026 0.504034 7.178204 2.793842 0.801813 1.049275 2.540232 0.408068 -2.975097 -10.293160 -5.306058 -21.316179 7.335404 -5.702423 17.559235 3.415956 -2.531564 9.576734 0.000000 0.000000 0.000000 39.141306 -56.668987 -27.378134 26.062042 -37.269905 8.925216 10.820701 24.677823 -30.513853 0.000000 0.000000 0.000000 -7.125000 0.000000 0.000000 -23.440308 59.381083 8.521071 0.000000 0.000000 0.000000 -42.557003 -62.161883 21.079257 -18.690777 -29.032663 -4.879918 -25.610006 -12.218017 -28.693634 0.000000 0.000000 0.000000 7.125000 0.000000 0.000000 2.924439 -1.240480 2.990939
5.657717 17.669983 -3.512454 -543.207711 174.251683 -175.886876 0.000000 0.000000 0.000000 -2.938289 -13.325535 -29.270902 2.673547 10.144929 29.449050 0.557655 -4.538935 -13.288004 1.274942 -7.156211 -20.178910 0.000000 0.000000 0.000000 26.680671 -2.108885 -10.229939 -2.061150 -8.991841 25.770258 -1.092806 -1.819063 -20.485853 -0.042649 -1.332561 3.664289 1.469839 0.550901 7.095582 3.222427 0.954916 0.980999 2.413542 0.475346 -2.997911 -9.145365 -4.817024 -21.467652 6.642512 -5.237785 17.989204 3.057094 -2.314066 9.654483 0.000000 0.000000 0.000000 40.955236 -55.847572 -25.897352 26.193655 -37.399260 9.005017 10.200598 24.237256 -30.572450 0.000000 0.000000 0.000000 -7.125000 0.000000 0.000000 -24.125175 59.293250 8.737218 0.000000 0.000000 0.000000 -40.777509 -63.448329 22.952343 -18.598864 -28.917176 -4.835364 -25.754623 -12.452634 -28.442359 0.000000 0.000000 0.000000 7.125000 0.000000 0.000000 2.801471 -1.010012 2.853629
5.695043 17.646157 -3.186129 -543.535609 175.615411 -176.022649 0.000000 0.000000 0.000000 -2.299340 -14.041721 -29.642089 2.197521 9.264579 26.627502 0.613709 -4.170876 -13.971876 1.050312 -6.516936 -18.291899 0.000000 0.000000 0.000000 27.004101 -3.210086 -8.706068 -1.926229 -8.710791 24.894749 -1.062631 -1.401334 -20.029336 -0.002482 -0.115280 0.316751 1.762467 0.864247 6.745909 3.286688 1.380855 0.997588 2.278452 0.684832 -2.792990 -9.302468 -4.714106 -20.103588 6.932175 -5.211384 17.345245 3.195002 -2.304429 9.198114 0.000000 0.000000 0.000000 40.871133 -55.895850 -25.951575 26.305318 -37.508573 9.072919 10.029230 24.537188 -30.763908 0.000000 0.000000 0.000000 -7.125000 0.000000 0.000000 -24.456342 59.427069 8.945049 0.000000 0.000000 0.000000 -39.976589 -63.720528 22.919334 -18.442629 -28.720238 -4.760100 -25.165574 -11.899639 -28.735389 0.000000 0.000000 0.000000 7.125000 0.000000 0.000000 3.189811 -1.184141 3.260211
5.719555 17.612509 -2.872051 -542.860689 177.316316 -176.099499 0.000000 0.000000 0.000000 -3.483697 -12.779162 -30.127721 1.897049 8.648107 24.700679 0.599538 -3.239231 -13.882175 1.223290 -7.009384 -19.745372 0.000000 0.000000 0.000000 26.143652 -3.039724 -7.682666 -2.037478 -8.943591 25.619054 -1.118955 -0.914590 -20.340898 -0.004351 0.347679 -0.955385 0.942893 1.301221 6.720526 2.918127 1.892510 0.920224 2.310121 0.946179 -2.886699 -9.021131 -4.774339 -20.008965 7.213448 -5.470000 17.680557 3.214650 -2.377319 9.321117 0.000000 0.000000 0.000000 41.059305 -55.772047 -26.049986 26.316271 -37.519303 9.079593 10.448911 24.897766 -30.264041 0.000000 0.000000 0.000000 -7.125000 0.000000 0.000000 -23.623740 59.070186 8.414741 0.000000 0.000000 0.000000 -38.846522 -63.677597 23.257820 -18.253954 -28.481192 -4.669749 -25.370976 -11.450533 -28.848797 0.000000 0.000000 0.000000 7.125000 0.000000 0.000000 3.087456 -1.348967 3.163934
5.763458 17.555822 -2.545896 -543.420187 178.814038 -176.504900 0.000000 0.000000 0.000000 -3.507054 -11.606454 -30.055466 1.826707 8.495267 24.228940 0.615235 -2.780692 -14.129615 0.976435 -6.290479 -17.629688 0.000000 0.000000 0.000000 26.519856 -2.903764 -6.785365 -2.260917 -9.389279 27.020916 -1.165995 -0.650199 -20.656485 -0.052186 1.409552 -3.877238 1.378749 1.485043 6.552054 3.020618 2.163611 0.983438 2.151466 1.076829 -2.724425 -8.456307 -4.547894 -19.640750 6.848480 -5.275637 17.667093 3.025507 -2.295738 9.205781 0.000000 0.000000 0.000000 41.700118 -55.375123 -25.727243 26.249220 -37.453747 9.038764 10.531448 24.782194 -30.321821 0.000000 0.000000 0.000000 -7.125000 0.000000 0.000000 -23.585177 59.141098 8.440986 0.000000 0.000000 0.000000 -37.089930 -63.795864 24.819834 -18.214964 -28.431483 -4.651138 -25.395411 -11.129235 -28.914599 0.000000 0.000000 0.000000 7.125000 0.000000 0.000000 3.083444 -1.423289 3.163651
5.832159 17.497765 -2.200431 -543.745451 180.029210 -177.091960 0.000000 0.000000 0.000000 -4.218033 -10.476329 -29.253818 1.883494 8.619016 24.610539 0.577337 -2.391722 -13.731771 0.902217 -6.053233 -16.938935 0.000000 0.000000 0.000000 26.285491 -3.530615 -6.247893 -2.685103 -10.164570 29.513518 -1.230302 0.784592 -20.730560 -0.115527 2.187356 -6.023838 1.851601 1.545188 6.277636 3.048021 2.258821 1.182531 1.916434 1.120849 -2.350842 -8.135755 -4.374937 -19.165001 6.430658 -5.084465 17.834361 2.860902 -2.239527 9.141439 0.000000 0.000000 0.000000 42.228224 -55.142419 -25.512019 25.957174 -37.166207 8.861853 11.291081 24.854480 -30.225968 0.000000 0.000000 0.000000 -7.125000 0.000000 0.000000 -22.727630 59.225461 8.159400 0.000000 0.000000 0.000000 -36.524257 -63.882936 26.423384 -18.264879 -28.494956 -4.674954 -24.815399 -11.607483 -28.846429 0.000000 0.000000 0.000000 7.125000 0.000000 0.000000 3.410645 -1.222299 3.488683
5.914861 17.429480 -1.836380 -543.444811 181.081876 -178.106175 0.000000 0.000000 0.000000 -5.854285 -9.633824 -27.570837 1.967754 8.798489 25.167152 0.428557 -1.933173 -11.836178 1.635017 -8.054286 -22.882412 0.000000 0.000000 0.000000 25.169795 -4.560806 -5.967093 -3.306557 -11.173626 32.869875 -1.144063 1.764969 -19.711085 -0.336278 3.722015 -10.296369 1.555031 1.581397 6.004137 3.016910 2.265289 1.495362 2.062143 1.126783 -1.886535 -7.910245 -4.097445 -18.447196 6.467611 -4.839080 17.996283 2.879348 -2.118989 9.043687 0.000000 0.000000 0.000000 42.057998 -55.100313 -25.478499 25.449673 -36.660046 8.557006 10.673493 24.333822 -30.296269 0.000000 0.000000 0.000000 -7.125000 0.000000 0.000000 -23.418658 59.150069 8.381745 0.000000 0.000000 0.000000 -35.971263 -63.484947 27.887063 -18.556115 -28.863376 -4.814692 -24.319863 -12.339924 -28.390518 0.000000 0.000000 0.000000 7.125000 0.000000 0.000000 3.633156 -0.638538 3.680870
6.003169 17.418873 -1.461738 -543.714840 182.002055 -179.418735 0.000000 0.000000 0.000000 -5.803552 -10.747164 -25.197664 2.139698 9.151080 26.269260 0.086999 -3.429758 -5.378773 1.007966 -6.388064 -17.914716 0.000000 0.000000 0.000000 24.374461 -5.563140 -5.837603 -4.165830 -12.376910 37.080231 -0.977399 2.880486 -17.937680 -0.562126 4.801411 -13.343244 2.044583 1.536413 6.280256 3.129897 2.234525 1.835365 1.904725 1.110090 -1.674942 -7.191155 -4.384295 -20.200103 5.329624 -5.143040 19.968181 2.315199 -2.305804 10.024071 0.000000 0.000000 0.000000 41.918865 -55.017315 -25.602481 24.995607 -36.199533 8.287288 9.928488 23.854072 -30.379193 0.000000 0.000000 0.000000 -7.125000 0.000000 0.000000 -24.247833 59.057392 8.646135 0.000000 0.000000 0.000000 -35.369417 -63.248769 28.352982 -18.458158 -28.739809 -4.767476 -23.661714 -11.616072 -28.838880 0.000000 0.000000 0.000000 7.125000 0.000000 0.000000 4.082080 -0.963843 4.160709
6.059787 17.472140 -1.117988 -543.731005 183.020594 -180.226130 0.000000 0.000000 0.000000 -5.332222 -12.124899 -23.710958 2.306566 9.477133 27.299793 -0.002688 -1.888539 -1.173563 0.396222 -3.307130 -9.216529 0.000000 0.000000 0.000000 23.383180 -5.296352 -7.582632 -5.624943 -14.047174 43.442583 -0.488447 3.343741 -12.430754 -0.244082 3.150241 -8.699819 1.752771 1.645735 6.451967 3.360908 2.367180 1.995955 2.294763 1.176158 -1.628241 -8.012848 -3.997878 -18.806321 6.431397 -4.713348 19.613777 2.916400 -2.067423 9.663182 0.000000 0.000000 0.000000 40.720222 -54.954222 -25.792563 24.592594 -35.784595 8.050489 9.966171 24.654524 -29.974929 0.000000 0.000000 0.000000 -7.125000 0.000000 0.000000 -23.892231 58.699880 8.304451 0.000000 0.000000 0.000000 -35.247080 -63.044487 28.407537 -18.330558 -28.578273 -4.706321 -23.791091 -11.161602 -28.847907 0.000000 0.000000 0.000000 7.125000 0.000000 0.000000 4.007892 -1.000811 4.087251
